<svg width="176" height="176" viewBox="0 0 176 176" fill="none" xmlns="http://www.w3.org/2000/svg">
<path fill-rule="evenodd" clip-rule="evenodd" d="M83.0625 5C75.6656 23.1352 71.2042 34.9977 62.9688 52.5938C68.0181 57.9461 74.216 64.1791 84.2812 71.2188C73.4601 66.7659 66.0787 62.2954 60.5625 57.6562C50.0227 79.6492 33.5099 110.977 0 171.188C26.3376 155.982 46.7541 146.608 65.7812 143.031C64.9642 139.517 64.4997 135.716 64.5312 131.75L64.5625 130.906C64.9804 114.032 73.7582 101.056 84.1562 101.938C94.5543 102.819 102.637 117.22 102.219 134.094C102.14 137.269 101.782 140.323 101.156 143.156C119.977 146.838 140.175 156.188 166.156 171.188C161.033 161.756 156.461 153.254 152.094 145.156C145.215 139.825 138.041 132.886 123.406 125.375C133.465 127.989 140.667 131.004 146.281 134.375C101.883 51.7132 98.2877 40.7291 83.0625 5Z" fill="#1793D1"/>
<path d="M166.975 156.354V151.798H165.273V151.188H169.368V151.798H167.659V156.354H166.975Z" fill="#1793D1"/>
<path d="M170.08 156.354V151.188H171.109L172.332 154.846C172.445 155.187 172.527 155.442 172.578 155.611C172.637 155.423 172.729 155.147 172.853 154.783L174.09 151.188H175.01V156.354H174.351V152.031L172.85 156.354H172.233L170.739 151.957V156.354H170.08Z" fill="#1793D1"/>
</svg>
